<svg width="101" height="35" viewBox="0 0 101 35" fill="none" xmlns="http://www.w3.org/2000/svg">
<rect width="101" height="35" fill="#F5F5F5"/>
<rect width="1440" height="1024" transform="translate(-547 -444)" fill="white"/>
<g filter="url(#filter0_dd_0_1)">
<path d="M25.912 26V0.271999H26.872V26H25.912ZM21.688 26V0.271999H22.648V26H21.688ZM23.8 26V0.271999H24.76V26H23.8ZM8.824 26V0.271999H9.784V26H8.824ZM4.6 26V0.271999H5.56V26H4.6ZM6.712 26V0.271999H7.672V26H6.712ZM20.536 17.136L10.936 3.344V1.648L20.536 15.44V17.136ZM20.536 20.848L10.936 7.056V5.36L20.536 19.152V20.848ZM20.536 24.56L10.936 10.768V9.072L20.536 22.864V24.56ZM31.8608 26V13.136H32.8208V26H31.8608ZM29.7488 26V13.136H30.7088V26H29.7488ZM41.9978 24.208C41.0804 24.208 40.2591 24.0053 39.5338 23.6C38.8084 23.1947 38.2324 22.64 37.8058 21.936C37.3791 21.232 37.1658 20.4427 37.1658 19.568C37.1658 18.6933 37.3791 17.904 37.8058 17.2C38.2324 16.496 38.8084 15.9413 39.5338 15.536C40.2591 15.1307 41.0804 14.928 41.9978 14.928C42.7658 14.928 43.4698 15.0773 44.1098 15.376C44.7711 15.6747 45.3151 16.08 45.7418 16.592L44.9738 17.168C44.2484 16.3147 43.2564 15.888 41.9978 15.888C40.8884 15.888 39.9604 16.24 39.2138 16.944C38.4884 17.6267 38.1258 18.5013 38.1258 19.568C38.1258 20.6133 38.4884 21.488 39.2138 22.192C39.9604 22.896 40.8884 23.248 41.9978 23.248C43.2564 23.248 44.2484 22.8213 44.9738 21.968L45.7418 22.544C45.3151 23.056 44.7711 23.4613 44.1098 23.76C43.4698 24.0587 42.7658 24.208 41.9978 24.208ZM41.9978 26.32C40.6964 26.32 39.5231 26.0213 38.4778 25.424C37.4324 24.8267 36.6004 24.016 35.9818 22.992C35.3631 21.968 35.0538 20.8267 35.0538 19.568C35.0538 18.288 35.3631 17.1467 35.9818 16.144C36.6004 15.12 37.4324 14.3093 38.4778 13.712C39.5231 13.1147 40.6964 12.816 41.9978 12.816C43.1071 12.816 44.1311 13.04 45.0698 13.488C46.0084 13.936 46.7871 14.5333 47.4058 15.28L46.6698 15.856C46.1364 15.216 45.4644 14.7147 44.6538 14.352C43.8431 13.968 42.9578 13.776 41.9978 13.776C40.8671 13.776 39.8431 14.032 38.9258 14.544C38.0298 15.056 37.3151 15.7493 36.7818 16.624C36.2698 17.4773 36.0138 18.4587 36.0138 19.568C36.0138 20.656 36.2698 21.6373 36.7818 22.512C37.3151 23.3867 38.0298 24.08 38.9258 24.592C39.8431 25.104 40.8671 25.36 41.9978 25.36C42.9578 25.36 43.8431 25.1787 44.6538 24.816C45.4644 24.432 46.1364 23.92 46.6698 23.28L47.4058 23.856C46.7871 24.6027 46.0084 25.2 45.0698 25.648C44.1311 26.096 43.1071 26.32 41.9978 26.32ZM58.6865 26L52.7985 18.64L55.9345 13.136H57.0545L53.9505 18.544L54.7185 19.504L58.3985 13.136H59.5185L55.3585 20.272L59.9345 26H58.6865ZM51.4545 26V13.136H52.4145V19.984L57.2145 26H55.9985L52.4145 21.52V26H51.4545ZM49.3425 26V13.136H50.3025V26H49.3425Z" fill="white"/>
<path d="M63.642 26V13.136H71.29V14.096H64.602V15.248H71.29V16.208H64.602V18.032H70.266V18.992H64.602V20.144H70.266V21.104H64.602V22.928H71.29V23.888H64.602V25.04H71.29V26H63.642ZM61.53 26V13.136H62.49V26H61.53ZM75.267 26V13.136H80.291C81.3363 13.1573 82.2323 13.52 82.979 14.224C83.7257 14.9067 84.099 15.856 84.099 17.072C84.099 18.0107 83.8643 18.8 83.395 19.44C82.947 20.08 82.3603 20.528 81.635 20.784L83.875 26H82.819L80.707 20.976C80.5363 20.9973 80.3977 21.008 80.291 21.008H79.459L81.571 26H80.515L78.403 21.008H76.227V26H75.267ZM73.155 26V13.136H74.115V26H73.155ZM80.227 14.096H76.227V15.248H80.291C80.803 15.2693 81.2083 15.4507 81.507 15.792C81.827 16.112 81.987 16.5387 81.987 17.072C81.987 17.6053 81.827 18.0427 81.507 18.384C81.187 18.7253 80.7817 18.896 80.291 18.896H76.227V20.048H80.227C81.0377 20.048 81.7203 19.8027 82.275 19.312C82.851 18.8 83.139 18.0533 83.139 17.072C83.139 16.0907 82.851 15.3547 82.275 14.864C81.7203 14.352 81.0377 14.096 80.227 14.096ZM80.227 16.208H76.227V17.936H80.227C80.4617 17.936 80.6537 17.872 80.803 17.744C80.9523 17.5947 81.027 17.3707 81.027 17.072C81.027 16.7733 80.9523 16.56 80.803 16.432C80.6537 16.2827 80.4617 16.208 80.227 16.208ZM91.1105 24.208C90.2572 24.208 89.5532 24.048 88.9985 23.728C88.4652 23.408 88.1665 22.992 88.1025 22.48L89.0625 22.352C89.0838 22.6293 89.2758 22.8533 89.6385 23.024C90.0012 23.1733 90.4918 23.248 91.1105 23.248C92.4758 23.248 93.1585 22.9493 93.1585 22.352C93.1585 22.096 93.0198 21.872 92.7425 21.68C92.4652 21.4667 91.9638 21.2533 91.2385 21.04L89.6065 20.56C88.6038 20.2613 87.7612 19.8133 87.0785 19.216C86.4172 18.6187 86.0865 17.8187 86.0865 16.816C86.0865 16.048 86.2998 15.3653 86.7265 14.768C87.1745 14.1707 87.7825 13.7013 88.5505 13.36C89.3185 12.9973 90.1718 12.816 91.1105 12.816C92.4758 12.816 93.6172 13.1467 94.5345 13.808C95.4518 14.4693 95.9745 15.3227 96.1025 16.368L95.1425 16.464C95.0572 15.6533 94.6412 15.0027 93.8945 14.512C93.1692 14.0213 92.2412 13.776 91.1105 13.776C89.9372 13.776 88.9665 14.064 88.1985 14.64C87.4305 15.216 87.0465 15.9413 87.0465 16.816C87.0465 17.6053 87.3025 18.2133 87.8145 18.64C88.3265 19.0667 89.0518 19.4187 89.9905 19.696L91.7505 20.208C93.3292 20.6773 94.1185 21.3813 94.1185 22.32C94.1185 22.9173 93.8412 23.3867 93.2865 23.728C92.7532 24.048 92.0278 24.208 91.1105 24.208ZM91.1105 26.32C89.7025 26.32 88.5292 25.9893 87.5905 25.328C86.6732 24.6667 86.1505 23.8133 86.0225 22.768L86.9825 22.64C87.0892 23.4507 87.5158 24.112 88.2625 24.624C89.0092 25.1147 89.9585 25.36 91.1105 25.36C92.3478 25.36 93.3505 25.0827 94.1185 24.528C94.8865 23.952 95.2705 23.1733 95.2705 22.192C95.2705 21.4027 95.0252 20.7627 94.5345 20.272C94.0438 19.7813 93.3292 19.4187 92.3905 19.184L90.4385 18.672C89.7132 18.48 89.1585 18.2453 88.7745 17.968C88.3905 17.6693 88.1985 17.2853 88.1985 16.816C88.1985 16.24 88.4652 15.7813 88.9985 15.44C89.5532 15.0987 90.2572 14.928 91.1105 14.928C91.8998 14.928 92.5612 15.088 93.0945 15.408C93.6278 15.7067 93.9265 16.1013 93.9905 16.592L93.0625 16.72C92.9558 16.1653 92.3052 15.888 91.1105 15.888C90.5132 15.888 90.0332 15.9733 89.6705 16.144C89.3292 16.2933 89.1585 16.5173 89.1585 16.816C89.1585 17.008 89.2758 17.1787 89.5105 17.328C89.7452 17.456 90.2572 17.6373 91.0465 17.872L92.7425 18.352C93.8518 18.672 94.7052 19.1413 95.3025 19.76C95.9212 20.3787 96.2305 21.1893 96.2305 22.192C96.2305 23.472 95.7505 24.4853 94.7905 25.232C93.8518 25.9573 92.6252 26.32 91.1105 26.32Z" fill="#F5F5F5"/>
</g>
<defs>
<filter id="filter0_dd_0_1" x="0.600006" y="0.272003" width="99.6305" height="34.048" filterUnits="userSpaceOnUse" color-interpolation-filters="sRGB">
<feFlood flood-opacity="0" result="BackgroundImageFix"/>
<feColorMatrix in="SourceAlpha" type="matrix" values="0 0 0 0 0 0 0 0 0 0 0 0 0 0 0 0 0 0 127 0" result="hardAlpha"/>
<feOffset dy="4"/>
<feGaussianBlur stdDeviation="2"/>
<feComposite in2="hardAlpha" operator="out"/>
<feColorMatrix type="matrix" values="0 0 0 0 0 0 0 0 0 0 0 0 0 0 0 0 0 0 0.25 0"/>
<feBlend mode="normal" in2="BackgroundImageFix" result="effect1_dropShadow_0_1"/>
<feColorMatrix in="SourceAlpha" type="matrix" values="0 0 0 0 0 0 0 0 0 0 0 0 0 0 0 0 0 0 127 0" result="hardAlpha"/>
<feOffset dy="4"/>
<feGaussianBlur stdDeviation="2"/>
<feComposite in2="hardAlpha" operator="out"/>
<feColorMatrix type="matrix" values="0 0 0 0 0 0 0 0 0 0 0 0 0 0 0 0 0 0 0.25 0"/>
<feBlend mode="normal" in2="effect1_dropShadow_0_1" result="effect2_dropShadow_0_1"/>
<feBlend mode="normal" in="SourceGraphic" in2="effect2_dropShadow_0_1" result="shape"/>
</filter>
</defs>
</svg>
