<svg width="101" height="31" viewBox="0 0 101 31" fill="none" xmlns="http://www.w3.org/2000/svg">
<rect width="101" height="31" fill="#F5F5F5"/>
<rect width="1440" height="1024" transform="translate(-96 -96)" fill="white"/>
<g filter="url(#filter0_dd_0_1)">
<path d="M4.65625 23V0.65625H7.54688L21.2188 18.6562V0.65625H23.9531V23H21.0625L7.39062 4.84375V23H4.65625ZM32.1719 6.59375V23H29.2812V6.59375H32.1719ZM32.1719 0.65625V3.39062H29.2812V0.65625H32.1719ZM49.5312 22.5312C48.1771 22.8438 46.7188 23 45.1562 23C39.3229 23 36.4062 20.1615 36.4062 14.4844C36.4062 9.22396 39.3229 6.59375 45.1562 6.59375C46.7188 6.59375 48.1771 6.75 49.5312 7.0625V9.40625C48.1771 9.09375 46.6667 8.9375 45 8.9375C41.1979 8.9375 39.2969 10.7865 39.2969 14.4844C39.2969 18.599 41.1979 20.6562 45 20.6562C46.6667 20.6562 48.1771 20.5 49.5312 20.1875V22.5312ZM53.2188 23V0.65625H56.1094V7.875C57.7031 7.02083 59.5417 6.59375 61.625 6.59375C65.7083 6.59375 67.75 8.17188 67.75 11.3281C67.75 13.6198 66.1875 15.2031 63.0625 16.0781L68.3125 23H64.6562L59.4375 16.0469V14.75C63.0521 14.4271 64.8594 13.2812 64.8594 11.3125C64.8594 9.72917 63.7135 8.9375 61.4219 8.9375C59.6198 8.9375 57.849 9.42708 56.1094 10.4062V23H53.2188Z" fill="#1E1D1D"/>
<path d="M78.4531 6.59375C83.1198 6.59375 85.4531 8.90104 85.4531 13.5156C85.4531 14.1719 85.4062 14.875 85.3125 15.625H73.7969C73.7969 18.9792 75.7552 20.6562 79.6719 20.6562C81.5365 20.6562 83.1927 20.4479 84.6406 20.0312V22.375C83.1927 22.7917 81.4323 23 79.3594 23C73.724 23 70.9062 20.2031 70.9062 14.6094C70.9062 9.26562 73.4219 6.59375 78.4531 6.59375ZM73.7969 13.2188H82.6719C82.6094 10.3438 81.2031 8.90625 78.4531 8.90625C75.5365 8.90625 73.9844 10.3438 73.7969 13.2188ZM89.3438 23V6.59375H91.2969L91.8125 8.6875C93.25 7.29167 94.9792 6.59375 97 6.59375V9C95.0417 9 93.4531 9.69271 92.2344 11.0781V23H89.3438Z" fill="#F53737"/>
</g>
<defs>
<filter id="filter0_dd_0_1" x="0.65625" y="0.65625" width="100.344" height="30.3438" filterUnits="userSpaceOnUse" color-interpolation-filters="sRGB">
<feFlood flood-opacity="0" result="BackgroundImageFix"/>
<feColorMatrix in="SourceAlpha" type="matrix" values="0 0 0 0 0 0 0 0 0 0 0 0 0 0 0 0 0 0 127 0" result="hardAlpha"/>
<feOffset dy="4"/>
<feGaussianBlur stdDeviation="2"/>
<feComposite in2="hardAlpha" operator="out"/>
<feColorMatrix type="matrix" values="0 0 0 0 0 0 0 0 0 0 0 0 0 0 0 0 0 0 0.25 0"/>
<feBlend mode="normal" in2="BackgroundImageFix" result="effect1_dropShadow_0_1"/>
<feColorMatrix in="SourceAlpha" type="matrix" values="0 0 0 0 0 0 0 0 0 0 0 0 0 0 0 0 0 0 127 0" result="hardAlpha"/>
<feOffset dy="4"/>
<feGaussianBlur stdDeviation="2"/>
<feComposite in2="hardAlpha" operator="out"/>
<feColorMatrix type="matrix" values="0 0 0 0 0 0 0 0 0 0 0 0 0 0 0 0 0 0 0.25 0"/>
<feBlend mode="normal" in2="effect1_dropShadow_0_1" result="effect2_dropShadow_0_1"/>
<feBlend mode="normal" in="SourceGraphic" in2="effect2_dropShadow_0_1" result="shape"/>
</filter>
</defs>
</svg>
